<svg width="390" height="68" viewBox="0 0 390 68" fill="none" xmlns="http://www.w3.org/2000/svg">
<g filter="url(#filter0_d_1159_149)">
<path fill-rule="evenodd" clip-rule="evenodd" d="M0 0L16.25 7.77778C32.5 15.5556 65 31.1111 97.5 32.2222C130 33.3333 162.5 20 195 15.5556C227.5 11.1111 260 15.5556 292.5 20C325 24.4444 357.5 28.8889 373.75 31.1111L390 33.3333V60H373.75C357.5 60 325 60 292.5 60C260 60 227.5 60 195 60C162.5 60 130 60 97.5 60C65 60 32.5 60 16.25 60H0V0Z" fill="#FFF20E"/>
<path fill-rule="evenodd" clip-rule="evenodd" d="M0 0L16.25 7.77778C32.5 15.5556 65 31.1111 97.5 32.2222C130 33.3333 162.5 20 195 15.5556C227.5 11.1111 260 15.5556 292.5 20C325 24.4444 357.5 28.8889 373.75 31.1111L390 33.3333V60H373.75C357.5 60 325 60 292.5 60C260 60 227.5 60 195 60C162.5 60 130 60 97.5 60C65 60 32.5 60 16.25 60H0V0Z" stroke="black"/>
</g>
<defs>
<filter id="filter0_d_1159_149" x="-4" y="0" width="398" height="68" filterUnits="userSpaceOnUse" color-interpolation-filters="sRGB">
<feFlood flood-opacity="0" result="BackgroundImageFix"/>
<feColorMatrix in="SourceAlpha" type="matrix" values="0 0 0 0 0 0 0 0 0 0 0 0 0 0 0 0 0 0 127 0" result="hardAlpha"/>
<feOffset dy="4"/>
<feGaussianBlur stdDeviation="2"/>
<feComposite in2="hardAlpha" operator="out"/>
<feColorMatrix type="matrix" values="0 0 0 0 0 0 0 0 0 0 0 0 0 0 0 0 0 0 0.1 0"/>
<feBlend mode="normal" in2="BackgroundImageFix" result="effect1_dropShadow_1159_149"/>
<feBlend mode="normal" in="SourceGraphic" in2="effect1_dropShadow_1159_149" result="shape"/>
</filter>
</defs>
</svg>
